<svg width="48" height="48" viewBox="0 0 48 48" fill="none" xmlns="http://www.w3.org/2000/svg">
    <path d="M8.9 9.32L20 22V42L28 38V22L39.1 9.32C39.3537 9.03125 39.5188 8.67552 39.5755 8.29538C39.6323 7.91524 39.5783 7.52679 39.4201 7.17653C39.2618 6.82627 39.006 6.52902 38.6832 6.32037C38.3604 6.11171 37.9844 6.00049 37.6 6H10.4C10.0156 6.00049 9.63957 6.11171 9.31678 6.32037C8.994 6.52902 8.73817 6.82627 8.57992 7.17653C8.42167 7.52679 8.3677 7.91524 8.42446 8.29538C8.48123 8.67552 8.64632 9.03125 8.9 9.32Z" stroke="#242424" stroke-width="2" stroke-linecap="round" stroke-linejoin="round"/>
</svg>
