<svg width="100" height="100" viewBox="0 0 100 100" fill="none" xmlns="http://www.w3.org/2000/svg">
    <path d="M66.6667 50H33.3333M50 62.5V37.5M66.6667 62.5V37.5M33.3333 62.5V37.5M20.8333 87.5H79.1667C80.2717 87.5 81.3315 87.061 82.113 86.2796C82.8944 85.4982 83.3333 84.4384 83.3333 83.3333V16.6667C83.3333 15.5616 82.8944 14.5018 82.113 13.7204C81.3315 12.939 80.2717 12.5 79.1667 12.5H20.8333C19.7283 12.5 18.6685 12.939 17.8871 13.7204C17.1057 14.5018 16.6667 15.5616 16.6667 16.6667V83.3333C16.6667 84.4384 17.1057 85.4982 17.8871 86.2796C18.6685 87.061 19.7283 87.5 20.8333 87.5Z" stroke="#242424" stroke-width="2" stroke-linecap="round" stroke-linejoin="round"/>
</svg>
