<svg width="49" height="48" viewBox="0 0 49 48" fill="#F36770" xmlns="http://www.w3.org/2000/svg">
    <path d="M39.7683 10.88C41.6014 12.7205 42.6307 15.2123 42.6307 17.81C42.6307 20.4077 41.6014 22.8995 39.7683 24.74L24.6283 40L9.48825 24.74C8.12674 23.3693 7.1998 21.6274 6.82347 19.7325C6.44714 17.8375 6.63814 15.8736 7.37256 14.0867C8.10698 12.2997 9.35218 10.7691 10.9523 9.68643C12.5524 8.60376 14.4363 8.01714 16.3683 8C18.9515 8.01567 21.4242 9.05072 23.2483 10.88C23.7803 11.4064 24.2439 11.9978 24.6283 12.64C25.0126 11.9978 25.4762 11.4064 26.0083 10.88C26.907 9.96811 27.9781 9.24399 29.1592 8.74973C30.3403 8.25547 31.6079 8.00094 32.8883 8.00094C34.1686 8.00094 35.4362 8.25547 36.6173 8.74973C37.7984 9.24399 38.8695 9.96811 39.7683 10.88Z" stroke="#909090" stroke-width="2" stroke-linecap="round" stroke-linejoin="round"/>
</svg>
