<svg width="49" height="48" viewBox="0 0 49 48" fill="none" xmlns="http://www.w3.org/2000/svg">
    <path d="M34.8847 16C34.8847 17.9778 34.2982 19.9112 33.1994 21.5557C32.1006 23.2002 30.5388 24.4819 28.7116 25.2388C26.8843 25.9957 24.8736 26.1937 22.9338 25.8079C20.994 25.422 19.2122 24.4696 17.8137 23.0711C16.4151 21.6725 15.4627 19.8907 15.0769 17.9509C14.691 16.0111 14.8891 14.0004 15.6459 12.1732C16.4028 10.3459 17.6845 8.78412 19.329 7.6853C20.9735 6.58649 22.9069 6 24.8847 6C27.5369 6 30.0804 7.05357 31.9558 8.92893C33.8312 10.8043 34.8847 13.3478 34.8847 16ZM26.8847 26H22.8847C19.1717 26 15.6107 27.475 12.9852 30.1005C10.3597 32.726 8.88474 36.287 8.88474 40C8.88474 40.5304 9.09545 41.0391 9.47052 41.4142C9.84559 41.7893 10.3543 42 10.8847 42H38.8847C39.4152 42 39.9239 41.7893 40.299 41.4142C40.674 41.0391 40.8847 40.5304 40.8847 40C40.8847 36.287 39.4097 32.726 36.7842 30.1005C34.1587 27.475 30.5978 26 26.8847 26Z" stroke="#242424" stroke-width="2" stroke-linecap="round" stroke-linejoin="round"/>
</svg>
