<svg width="48" height="48" viewBox="0 0 48 48" fill="#eeeeee" xmlns="http://www.w3.org/2000/svg">
    <path d="M40 21.6667L24.58 5.60417C24.2075 5.21928 23.7047 5.0023 23.18 5H10C9.46957 5 8.96086 5.21949 8.58579 5.61019C8.21071 6.00089 8 6.5308 8 7.08333V40.4167C8 40.9692 8.21071 41.4991 8.58579 41.8898C8.96086 42.2805 9.46957 42.5 10 42.5H24C24.5902 40.0392 25.8726 37.8182 27.6829 36.1218C29.4931 34.4255 31.7486 33.3311 34.16 32.9792L38.28 32.3542C38.7606 32.2834 39.2 32.0331 39.5165 31.6498C39.8329 31.2664 40.0048 30.7764 40 30.2708V21.6667ZM40 21.6667H8M16 30H20" stroke="#242424" stroke-width="2" stroke-linecap="round" stroke-linejoin="round"/>
</svg>
